<svg width="1080" height="1080" viewBox="0 0 1080 1080" fill="none" xmlns="http://www.w3.org/2000/svg">
  <defs>
    <linearGradient id="bg" x1="540" y1="0" x2="540" y2="1080" gradientUnits="userSpaceOnUse">
      <stop stop-color="#0B0D12"/>
      <stop offset="1" stop-color="#151820"/>
    </linearGradient>
    <linearGradient id="screenGlow" x1="540" y1="280" x2="540" y2="720" gradientUnits="userSpaceOnUse">
      <stop stop-color="#2563EB" stop-opacity="0.22"/>
      <stop offset="1" stop-color="#2563EB" stop-opacity="0"/>
    </linearGradient>
    <linearGradient id="accent" x1="0" y1="0" x2="1" y2="1">
      <stop stop-color="#2563EB"/>
      <stop offset="1" stop-color="#60A5FA"/>
    </linearGradient>
    <filter id="shadow" x="-20%" y="-20%" width="140%" height="140%">
      <feDropShadow dx="0" dy="24" stdDeviation="28" flood-color="#000" flood-opacity="0.55"/>
    </filter>
  </defs>

  <rect width="1080" height="1080" fill="url(#bg)"/>
  <ellipse cx="540" cy="520" rx="420" ry="280" fill="url(#screenGlow)"/>

  <text x="540" y="118" fill="#FFFFFF" font-family="Inter, system-ui, sans-serif" font-size="52" font-weight="700" text-anchor="middle" letter-spacing="0.04em">NOW LIVE!</text>

  <g filter="url(#shadow)">
    <rect x="170" y="200" width="740" height="460" rx="28" fill="#1A1D24"/>
    <rect x="170" y="200" width="740" height="36" rx="28" fill="#252830"/>
    <rect x="170" y="224" width="740" height="12" fill="#252830"/>
    <circle cx="198" cy="218" r="7" fill="#F87171"/>
    <circle cx="222" cy="218" r="7" fill="#FBBF24"/>
    <circle cx="246" cy="218" r="7" fill="#34D399"/>
    <rect x="300" y="208" width="380" height="20" rx="10" fill="#111318"/>
    <text x="490" y="222" fill="#6B7280" font-family="Inter, system-ui, sans-serif" font-size="11" text-anchor="middle">businessos.curvvtech.com</text>

    <rect x="190" y="252" width="700" height="388" rx="12" fill="#030508"/>

    <circle cx="220" cy="286" r="4" fill="#34D399"/>
    <text x="236" y="290" fill="#34D399" font-family="ui-monospace, monospace" font-size="11" letter-spacing="0.12em">SYSTEM OPERATIONAL</text>

    <text x="220" y="340" fill="#FFFFFF" font-family="Inter, system-ui, sans-serif" font-size="34" font-weight="600">This Company Runs Itself.</text>
    <text x="220" y="372" fill="#9CA3AF" font-family="Inter, system-ui, sans-serif" font-size="14">Meet Business OS  the AI workforce operating modern businesses.</text>

    <rect x="220" y="396" width="168" height="40" rx="4" fill="#2563EB"/>
    <text x="304" y="421" fill="#FFFFFF" font-family="Inter, system-ui, sans-serif" font-size="13" font-weight="500" text-anchor="middle">Deploy AI Workforce</text>

    <rect x="400" y="396" width="168" height="40" rx="4" fill="none" stroke="#374151" stroke-width="1.5"/>
    <text x="484" y="421" fill="#D1D5DB" font-family="Inter, system-ui, sans-serif" font-size="13" text-anchor="middle">Watch Business OS Run</text>

    <rect x="220" y="460" width="250" height="150" rx="8" fill="#0A0F18" stroke="#2563EB" stroke-opacity="0.25"/>
    <text x="236" y="486" fill="#60A5FA" font-family="ui-monospace, monospace" font-size="10" letter-spacing="0.1em">LIVE OS PREVIEW</text>
    <text x="452" y="486" fill="#6B7280" font-family="ui-monospace, monospace" font-size="10" text-anchor="end">8 agents</text>
    <text x="236" y="516" fill="#6B7280" font-family="ui-monospace, monospace" font-size="10">09:41:02</text>
    <text x="310" y="516" fill="#60A5FA" font-family="ui-monospace, monospace" font-size="10">Sales Agent</text>
    <text x="236" y="542" fill="#6B7280" font-family="ui-monospace, monospace" font-size="10">09:41:18</text>
    <text x="310" y="542" fill="#60A5FA" font-family="ui-monospace, monospace" font-size="10">Ad Manager</text>
    <text x="236" y="568" fill="#6B7280" font-family="ui-monospace, monospace" font-size="10">09:41:33</text>
    <text x="310" y="568" fill="#60A5FA" font-family="ui-monospace, monospace" font-size="10">Lead Manager</text>

    <circle cx="700" cy="520" r="110" fill="none" stroke="#2563EB" stroke-opacity="0.2" stroke-width="1"/>
    <circle cx="700" cy="520" r="75" fill="none" stroke="#2563EB" stroke-opacity="0.15" stroke-width="1"/>
    <circle cx="700" cy="520" r="40" fill="none" stroke="#2563EB" stroke-opacity="0.12" stroke-width="1"/>
    <line x1="700" y1="520" x2="790" y2="520" stroke="#60A5FA" stroke-opacity="0.7" stroke-width="2"/>
    <circle cx="700" cy="520" r="5" fill="#60A5FA"/>

    <rect x="790" y="390" width="88" height="52" rx="6" fill="#0A0F18" stroke="#2563EB" stroke-opacity="0.2"/>
    <text x="834" y="412" fill="#6B7280" font-family="ui-monospace, monospace" font-size="8" text-anchor="middle">REVENUE</text>
    <text x="834" y="430" fill="#FFFFFF" font-family="ui-monospace, monospace" font-size="12" font-weight="600" text-anchor="middle">ą2.4M</text>

    <rect x="790" y="500" width="88" height="52" rx="6" fill="#0A0F18" stroke="#2563EB" stroke-opacity="0.2"/>
    <text x="834" y="522" fill="#6B7280" font-family="ui-monospace, monospace" font-size="8" text-anchor="middle">AI AGENTS</text>
    <text x="834" y="540" fill="#FFFFFF" font-family="ui-monospace, monospace" font-size="12" font-weight="600" text-anchor="middle">8 active</text>

    <rect x="790" y="580" width="88" height="52" rx="6" fill="#0A0F18" stroke="#2563EB" stroke-opacity="0.2"/>
    <text x="834" y="602" fill="#6B7280" font-family="ui-monospace, monospace" font-size="8" text-anchor="middle">PAYROLL</text>
    <text x="834" y="620" fill="#34D399" font-family="ui-monospace, monospace" font-size="12" font-weight="600" text-anchor="middle">Processed</text>

    <rect x="170" y="636" width="740" height="24" rx="0" fill="#1A1D24"/>
    <rect x="500" y="644" width="80" height="8" rx="4" fill="#374151"/>
  </g>

  <text x="540" y="820" fill="#FFFFFF" font-family="Inter, system-ui, sans-serif" font-size="44" font-weight="700" text-anchor="middle">Business OS</text>
  <text x="540" y="868" fill="#9CA3AF" font-family="Inter, system-ui, sans-serif" font-size="22" text-anchor="middle">The AI Operating System For Modern Businesses</text>
  <text x="540" y="920" fill="#2563EB" font-family="Inter, system-ui, sans-serif" font-size="18" font-weight="500" text-anchor="middle">curvvtech.com/business-os</text>
</svg>
